<?xml version="1.0" standalone="no"?>
<!DOCTYPE svg PUBLIC "-//W3C//DTD SVG 1.0//EN" "http://www.w3.org/TR/2001/REC-SVG-20010904/DTD/svg10.dtd">
<svg xmlns="http://www.w3.org/2000/svg" xmlns:xlink="http://www.w3.org/1999/xlink" id="body_1" width="367" height="122">

<g transform="matrix(1.3592594 0 0 1.3555555 0 0)">
	<g transform="matrix(1 0 0 1 45 45)">
		<g>
            <path d="M8.75 12C 8.75 12.759392 8.481515 13.407574 7.944544 13.944544C 7.407573 14.481516 6.759392 14.750001 6 14.75C 5.2406087 14.750001 4.5924273 14.481516 4.055456 13.944544C 3.5184855 13.407574 3.25 12.759392 3.25 12C 3.25 11.240608 3.5184855 10.592427 4.055456 10.055456C 4.5924273 9.518486 5.2406087 9.25 6 9.25C 6.759392 9.25 7.407573 9.518486 7.944544 10.055456C 8.481515 10.592427 8.75 11.240608 8.75 12C 8.75 12.0320015 8.749442 12.063993 8.748325 12.095974" stroke="none" fill="#000000" fill-rule="nonzero" />
            <path d="M16.75 9C 16.75 9.759392 16.481514 10.407574 15.944544 10.944544C 15.407574 11.481515 14.759393 11.75 14 11.75C 13.240609 11.75 12.592428 11.481515 12.055456 10.944544C 11.518486 10.407574 11.25 9.759392 11.25 9C 11.25 8.240608 11.518486 7.5924273 12.055456 7.055456C 12.592428 6.518486 13.240609 6.2500005 14 6.25C 14.759393 6.2500005 15.407574 6.518486 15.944544 7.055456C 16.481514 7.5924273 16.75 8.240608 16.75 9C 16.75 9.0320015 16.749443 9.0639925 16.748325 9.095974" stroke="none" fill="#000000" fill-rule="nonzero" />
            <path d="M25.25 8C 25.25 8.759392 24.981516 9.407574 24.444544 9.944544C 23.907574 10.481515 23.259392 10.75 22.5 10.75C 21.740608 10.75 21.092426 10.481515 20.555456 9.944544C 20.018486 9.407574 19.75 8.759392 19.75 8C 19.75 7.240609 20.018486 6.5924277 20.555456 6.055456C 21.092426 5.5184855 21.740608 5.25 22.5 5.25C 23.259392 5.25 23.907574 5.5184855 24.444544 6.055456C 24.981516 6.5924277 25.25 7.240609 25.25 8C 25.25 8.0320015 25.249443 8.0639925 25.248325 8.095974" stroke="none" fill="#000000" fill-rule="nonzero" />
            <path d="M33.75 9C 33.75 9.759392 33.481514 10.407574 32.944542 10.944544C 32.407574 11.481515 31.759394 11.75 31 11.75C 30.24061 11.75 29.592428 11.481515 29.055456 10.944544C 28.518486 10.407574 28.25 9.759392 28.25 9C 28.25 8.240608 28.518486 7.5924273 29.055456 7.055456C 29.592428 6.518486 30.24061 6.2500005 31 6.25C 31.759394 6.2500005 32.407574 6.518486 32.944542 7.055456C 33.481514 7.5924273 33.75 8.240608 33.75 9C 33.75 9.0320015 33.749443 9.0639925 33.748325 9.095974" stroke="none" fill="#000000" fill-rule="nonzero" />
            <path d="M41.75 12C 41.75 12.759392 41.481514 13.407574 40.944542 13.944544C 40.407574 14.481516 39.75939 14.750001 39 14.75C 38.24061 14.750001 37.59243 14.481516 37.055458 13.944544C 36.518486 13.407574 36.25 12.759392 36.25 12C 36.25 11.240608 36.518486 10.592427 37.055458 10.055456C 37.59243 9.518486 38.24061 9.25 39 9.25C 39.75939 9.25 40.407574 9.518486 40.944542 10.055456C 41.481514 10.592427 41.75 11.240608 41.75 12C 41.75 12.0320015 41.749443 12.063993 41.748325 12.095974" stroke="none" fill="#000000" fill-rule="nonzero" />
		</g>
        <path d="M9 26C 17.5 24.5 30 24.5 36 26L36 26L38.5 13.5L31 25L30.7 10.9L25.5 24.5L22.5 10L19.5 24.5L14.3 10.9L14 25L6.5 13.5L9 26z" stroke="#000000" stroke-width="1.5" fill="#000000" fill-rule="nonzero" fill-opacity="0" />
        <path d="M9 26C 9 28 10.5 28 11.5 30C 12.5 31.5 12.5 31 12 33.5C 10.5 34.5 10.5 36 10.5 36C 9 37.5 11 38.5 11 38.5C 17.5 39.5 27.5 39.5 34 38.5C 34 38.5 35.5 37.5 34 36C 34 36 34.5 34.5 33 33.5C 32.5 31 32.5 31.5 33.5 30C 34.5 28 36 28 36 26C 27.5 24.5 17.5 24.5 9 26z" stroke="#000000" stroke-width="1.5" fill="#000000" fill-rule="nonzero" fill-opacity="0" />
        <path d="M11 38.5C 18.447758 41.090977 26.552242 41.09098 34 38.5" stroke="#000000" stroke-width="1.5" fill="none" />
        <path d="M11 29C 18.447758 26.40902 26.552242 26.409023 34 29" stroke="#FFFFFF" stroke-width="1.5" fill="none" />
        <path d="M12.5 31.5L32.5 31.5" stroke="#FFFFFF" stroke-width="1.5" fill="none" />
        <path d="M11.5 34.5C 18.642712 36.864674 26.357288 36.86467 33.5 34.5" stroke="#FFFFFF" stroke-width="1.5" fill="none" />
        <path d="M10.5 37.5C 18.249977 40.328587 26.750023 40.328583 34.5 37.5" stroke="#FFFFFF" stroke-width="1.5" fill="none" />
	</g>
</g>
</svg>