<?xml version="1.0" standalone="no"?>
<!DOCTYPE svg PUBLIC "-//W3C//DTD SVG 1.0//EN" "http://www.w3.org/TR/2001/REC-SVG-20010904/DTD/svg10.dtd">
<svg xmlns="http://www.w3.org/2000/svg" xmlns:xlink="http://www.w3.org/1999/xlink" id="body_1" width="359" height="120">

<g transform="matrix(1.3296297 0 0 1.3333334 0 0)">
	<g transform="matrix(1 0 0 1 225 45)">
        <path d="M22 9C 19.79 9 18 10.79 18 13C 18 13.89 18.29 14.71 18.78 15.38C 16.83 16.5 15.5 18.59 15.5 21C 15.5 23.03 16.44 24.84 17.91 26.03C 14.91 27.09 10.5 31.58 10.5 39.5L10.5 39.5L33.5 39.5C 33.5 31.58 29.09 27.09 26.09 26.03C 27.56 24.84 28.5 23.03 28.5 21C 28.5 18.59 27.17 16.5 25.22 15.38C 25.71 14.71 26 13.89 26 13C 26 10.79 24.21 9 22 9z" stroke="#000000" stroke-width="1.5" stroke-linecap="square" fill="#000000" fill-rule="nonzero" />
	</g>
</g>
</svg>