<?xml version="1.0" standalone="no"?>
<!DOCTYPE svg PUBLIC "-//W3C//DTD SVG 1.0//EN" "http://www.w3.org/TR/2001/REC-SVG-20010904/DTD/svg10.dtd">
<svg xmlns="http://www.w3.org/2000/svg" xmlns:xlink="http://www.w3.org/1999/xlink" id="body_1" width="367" height="122">

<g transform="matrix(1.3592594 0 0 1.3555555 0 0)">
	<g transform="matrix(1 0 0 1 135 45)">
        <path d="M22 10C 32.5 11 38.5 18 38 39L38 39L15 39C 15 30 25 32.5 23 18" stroke="#000000" stroke-width="1.5" fill="#000000" fill-rule="nonzero" />
        <path d="M24 18C 24.38 20.91 18.45 25.37 16 27C 13 29 13.18 31.34 11 31C 9.958 30.06 12.41 27.96 11 28C 10 28 11.19 29.23 10 30C 9 30 5.997 31 6 26C 6 24 12 14 12 14C 12 14 13.89 12.1 14 10.5C 13.27 9.506 13.5 8.5 13.5 7.5C 14.5 6.5 16.5 10 16.5 10L16.5 10L18.5 10C 18.5 10 19.28 8.008 21 7C 22 7 22 10 22 10" stroke="#000000" stroke-width="1.5" fill="#000000" fill-rule="nonzero" />
        <path d="M9.5 25.5C 9.5 25.678633 9.4047 25.843697 9.25 25.933012C 9.0953 26.02233 8.9047 26.02233 8.75 25.933012C 8.5953 25.843697 8.5 25.678633 8.5 25.5C 8.5 25.321367 8.5953 25.156303 8.75 25.066988C 8.9047 24.97767 9.0953 24.97767 9.25 25.066988C 9.4047 25.156303 9.5 25.321367 9.5 25.5z" stroke="#FFFFFF" stroke-width="1.5" fill="#FFFFFF" fill-rule="nonzero" />
        <path transform="matrix(0.866 0.5 -0.5 0.866 9.693 -5.173)"  d="M15 15.5C 15 16.035898 14.9047 16.53109 14.75 16.799038C 14.5953 17.066988 14.4047 17.066988 14.25 16.799038C 14.0953 16.53109 14 16.035898 14 15.5C 14 14.964102 14.0953 14.468911 14.25 14.200962C 14.4047 13.933013 14.5953 13.933013 14.75 14.200962C 14.9047 14.468911 15 14.964102 15 15.5z" stroke="#FFFFFF" stroke-width="1.5" fill="#FFFFFF" fill-rule="nonzero" />
        <path d="M24.55 10.4L24.1 11.85L24.6 12C 27.75 13 30.25 14.49 32.5 18.75C 34.75 23.01 35.75 29.06 35.25 39L35.25 39L35.2 39.5L37.45 39.5L37.5 39C 38 28.94 36.62 22.15 34.25 17.66C 31.88 13.17 28.46 11.02 25.06 10.5L25.06 10.5L24.55 10.4z" stroke="none" fill="#FFFFFF" fill-rule="nonzero" />
	</g>
</g>
</svg>