<?xml version="1.0" standalone="no"?>
<!DOCTYPE svg PUBLIC "-//W3C//DTD SVG 1.0//EN" "http://www.w3.org/TR/2001/REC-SVG-20010904/DTD/svg10.dtd">
<svg xmlns="http://www.w3.org/2000/svg" xmlns:xlink="http://www.w3.org/1999/xlink" id="body_1" width="367" height="122">

<g transform="matrix(1.3592594 0 0 1.3555555 0 0)">
	<g transform="matrix(1 0 0 1 90 0)">
		<g>
            <path d="M9 36C 12.39 35.03 19.11 36.43 22.5 34C 25.89 36.43 32.61 35.03 36 36C 36 36 37.65 36.54 39 38C 38.32 38.97 37.35 38.99 36 38.5C 32.61 37.53 25.89 38.96 22.5 37.5C 19.11 38.96 12.39 37.53 9 38.5C 7.646 38.99 6.677 38.97 6 38C 7.354 36.06 9 36 9 36z" stroke="#000000" stroke-width="1.5" fill="#FFFFFF" fill-rule="nonzero" />
            <path d="M15 32C 17.5 34.5 27.5 34.5 30 32C 30.5 30.5 30 30 30 30C 30 27.5 27.5 26 27.5 26C 33 24.5 33.5 14.5 22.5 10.5C 11.5 14.5 12 24.5 17.5 26C 17.5 26 15 27.5 15 30C 15 30 14.5 30.5 15 32z" stroke="#000000" stroke-width="1.5" fill="#FFFFFF" fill-rule="nonzero" />
            <path d="M25 8C 25 8.893164 24.523502 9.718482 23.75 10.165064C 22.976498 10.611646 22.023502 10.611646 21.25 10.165064C 20.476498 9.718481 20 8.893164 20 8C 20 7.106836 20.476498 6.2815185 21.25 5.834936C 22.023502 5.3883543 22.976498 5.3883543 23.75 5.8349366C 24.523502 6.281519 25 7.106836 25 8z" stroke="#000000" stroke-width="1.5" fill="#FFFFFF" fill-rule="nonzero" />
		</g>
        <path d="M17.5 26L27.5 26zM15 30L30 30zM22.5 15.5L22.5 20.5zM20 18L25 18" stroke="#000000" stroke-width="1.5" fill="none" />
	</g>
</g>
</svg>