<?xml version="1.0" standalone="no"?>
<!DOCTYPE svg PUBLIC "-//W3C//DTD SVG 1.0//EN" "http://www.w3.org/TR/2001/REC-SVG-20010904/DTD/svg10.dtd">
<svg xmlns="http://www.w3.org/2000/svg" xmlns:xlink="http://www.w3.org/1999/xlink" id="body_1" width="367" height="122">

<g transform="matrix(1.3592594 0 0 1.3555555 0 0)">
	<g transform="matrix(1 0 0 1 180 0)">
        <path d="M9 39L36 39L36 36L9 36L9 39z" stroke="#000000" stroke-width="1.5" fill="#FFFFFF" fill-rule="nonzero" />
        <path d="M12 36L12 32L33 32L33 36L12 36z" stroke="#000000" stroke-width="1.5" fill="#FFFFFF" fill-rule="nonzero" />
        <path d="M11 14L11 9L15 9L15 11L20 11L20 9L25 9L25 11L30 11L30 9L34 9L34 14" stroke="#000000" stroke-width="1.5" fill="#FFFFFF" fill-rule="nonzero" />
        <path d="M34 14L31 17L14 17L11 14" stroke="#000000" stroke-width="1.5" fill="#FFFFFF" fill-rule="nonzero" />
        <path d="M31 17L31 29.5L14 29.5L14 17" stroke="#000000" stroke-width="1.5" fill="#FFFFFF" fill-rule="nonzero" />
        <path d="M31 29.5L32.5 32L12.5 32L14 29.5" stroke="#000000" stroke-width="1.5" fill="#FFFFFF" fill-rule="nonzero" />
        <path d="M11 14L34 14" stroke="#000000" stroke-width="1.5" fill="none" />
	</g>
</g>
</svg>