<?xml version="1.0" standalone="no"?>
<!DOCTYPE svg PUBLIC "-//W3C//DTD SVG 1.0//EN" "http://www.w3.org/TR/2001/REC-SVG-20010904/DTD/svg10.dtd">
<svg xmlns="http://www.w3.org/2000/svg" xmlns:xlink="http://www.w3.org/1999/xlink" id="body_1" width="367" height="122">

<g transform="matrix(1.3592594 0 0 1.3555555 0 0)">
	<g transform="matrix(1 0 0 1 45 0)">
        <path transform="matrix(1 0 0 1 -1 -1)"  d="M9 13C 9 13.714531 8.618802 14.374785 8 14.732051C 7.381198 15.089316 6.618802 15.089316 6 14.732051C 5.3811975 14.374785 5 13.714531 5 13C 5 12.285469 5.381198 11.625215 6 11.267949C 6.618802 10.910684 7.381198 10.910684 8 11.267949C 8.618802 11.625215 9 12.285469 9 13z" stroke="#000000" stroke-width="1.5" fill="#FFFFFF" fill-rule="nonzero" />
        <path transform="matrix(1 0 0 1 15.5 -5.5)"  d="M9 13C 9 13.714531 8.618802 14.374785 8 14.732051C 7.381198 15.089316 6.618802 15.089316 6 14.732051C 5.3811975 14.374785 5 13.714531 5 13C 5 12.285469 5.381198 11.625215 6 11.267949C 6.618802 10.910684 7.381198 10.910684 8 11.267949C 8.618802 11.625215 9 12.285469 9 13z" stroke="#000000" stroke-width="1.5" fill="#FFFFFF" fill-rule="nonzero" />
        <path transform="matrix(1 0 0 1 32 -1)"  d="M9 13C 9 13.714531 8.618802 14.374785 8 14.732051C 7.381198 15.089316 6.618802 15.089316 6 14.732051C 5.3811975 14.374785 5 13.714531 5 13C 5 12.285469 5.381198 11.625215 6 11.267949C 6.618802 10.910684 7.381198 10.910684 8 11.267949C 8.618802 11.625215 9 12.285469 9 13z" stroke="#000000" stroke-width="1.5" fill="#FFFFFF" fill-rule="nonzero" />
        <path transform="matrix(1 0 0 1 7 -4.5)"  d="M9 13C 9 13.714531 8.618802 14.374785 8 14.732051C 7.381198 15.089316 6.618802 15.089316 6 14.732051C 5.3811975 14.374785 5 13.714531 5 13C 5 12.285469 5.381198 11.625215 6 11.267949C 6.618802 10.910684 7.381198 10.910684 8 11.267949C 8.618802 11.625215 9 12.285469 9 13z" stroke="#000000" stroke-width="1.5" fill="#FFFFFF" fill-rule="nonzero" />
        <path transform="matrix(1 0 0 1 24 -4)"  d="M9 13C 9 13.714531 8.618802 14.374785 8 14.732051C 7.381198 15.089316 6.618802 15.089316 6 14.732051C 5.3811975 14.374785 5 13.714531 5 13C 5 12.285469 5.381198 11.625215 6 11.267949C 6.618802 10.910684 7.381198 10.910684 8 11.267949C 8.618802 11.625215 9 12.285469 9 13z" stroke="#000000" stroke-width="1.5" fill="#FFFFFF" fill-rule="nonzero" />
        <path d="M9 26C 17.5 24.5 30 24.5 36 26L36 26L38 14L31 25L31 11L25.5 24.5L22.5 9.5L19.5 24.5L14 10.5L14 25L7 14L9 26z" stroke="#000000" stroke-width="1.5" fill="#FFFFFF" fill-rule="nonzero" />
        <path d="M9 26C 9 28 10.5 28 11.5 30C 12.5 31.5 12.5 31 12 33.5C 10.5 34.5 10.5 36 10.5 36C 9 37.5 11 38.5 11 38.5C 17.5 39.5 27.5 39.5 34 38.5C 34 38.5 35.5 37.5 34 36C 34 36 34.5 34.5 33 33.5C 32.5 31 32.5 31.5 33.5 30C 34.5 28 36 28 36 26C 27.5 24.5 17.5 24.5 9 26z" stroke="#000000" stroke-width="1.5" fill="#FFFFFF" fill-rule="nonzero" />
        <path d="M11.5 30C 15 29 30 29 33.5 30" stroke="#000000" stroke-width="1.5" fill="none" />
        <path d="M12 33.5C 18 32.5 27 32.5 33 33.5" stroke="#000000" stroke-width="1.5" fill="none" />
	</g>
</g>
</svg>